<?xml version="1.0" encoding="utf-8"?>
<!-- Generator: Adobe Illustrator 22.1.0, SVG Export Plug-In . SVG Version: 6.00 Build 0)  -->
<svg version="1.1" id="Logo" xmlns:x="&ns_extend;" xmlns:i="&ns_ai;" xmlns:graph="&ns_graphs;"
	 xmlns="http://www.w3.org/2000/svg" xmlns:xlink="http://www.w3.org/1999/xlink" x="0px" y="0px" viewBox="0 0 1056 887.039"
	 enable-background="new 0 0 1056 887.039" xml:space="preserve">
<metadata>
	<sfw  xmlns="&ns_sfw;">
		<slices></slices>
		<sliceSourceBounds  bottomLeftOrigin="true" height="887.039" width="1056" x="12" y="-977.039"></sliceSourceBounds>
	</sfw>
</metadata>
<g id="BG">
	<g>
		<g>
			<g>
				<linearGradient id="SVGID_1_" gradientUnits="userSpaceOnUse" x1="0" y1="443.5197" x2="1056" y2="443.5197">
					<stop  offset="0" style="stop-color:#0A0927"/>
					<stop  offset="1" style="stop-color:#1B1F50"/>
				</linearGradient>
				<path fill="url(#SVGID_1_)" d="M771,887.039H0V285C0,127.599,127.599,0,285,0h771v602.039
					C1056,759.441,928.401,887.039,771,887.039z"/>
			</g>
			<defs>
				<filter id="Adobe_OpacityMaskFilter" filterUnits="userSpaceOnUse" x="0" y="0" width="1056" height="887.039">
					
						<feColorMatrix  type="matrix" values="-1 0 0 0 1  0 -1 0 0 1  0 0 -1 0 1  0 0 0 1 0" color-interpolation-filters="sRGB" result="source"/>
				</filter>
			</defs>
			<mask maskUnits="userSpaceOnUse" x="0" y="0" width="1056" height="887.039" id="SVGID_2_">
				<g filter="url(#Adobe_OpacityMaskFilter)">
					
						<image overflow="visible" width="4418" height="3714" xlink:href="B160461D.jpg"  transform="matrix(0.24 0 0 0.24 -2.16 -2.16)">
					</image>
				</g>
			</mask>
			<g mask="url(#SVGID_2_)">
				<path fill="#FFFFFF" d="M771,887.039H0V285C0,127.599,127.599,0,285,0h771v602.039C1056,759.441,928.401,887.039,771,887.039z"
					/>
			</g>
		</g>
		<linearGradient id="SVGID_3_" gradientUnits="userSpaceOnUse" x1="22" y1="429.1393" x2="1056" y2="429.1393">
			<stop  offset="0" style="stop-color:#19153C"/>
			<stop  offset="1" style="stop-color:#2D3186"/>
		</linearGradient>
		<path fill="url(#SVGID_3_)" d="M771,858.274H22V285.005c0-157.401,127.599-285,285-285h749v573.269
			C1056,730.675,928.401,858.274,771,858.274z"/>
	</g>
	<g>
		
			<radialGradient id="SVGID_4_" cx="1035.0475" cy="23.5614" r="64.2313" fx="1067.173" fy="22.7654" gradientTransform="matrix(0.7399 -0.6497 0.8236 0.8823 247.8845 673.4943)" gradientUnits="userSpaceOnUse">
			<stop  offset="0" style="stop-color:#FFFFFF"/>
			<stop  offset="0.2245" style="stop-color:#CAC7E1;stop-opacity:0.7755"/>
			<stop  offset="0.6063" style="stop-color:#7972AC;stop-opacity:0.3937"/>
			<stop  offset="0.8733" style="stop-color:#484691;stop-opacity:0.1267"/>
			<stop  offset="1" style="stop-color:#2D3186;stop-opacity:0"/>
		</radialGradient>
		<path fill="url(#SVGID_4_)" d="M1056,0c-38,0-71,0-95.812,0.384c0,51.859,42.344,93.898,95.812,93.898C1056,61,1056,51.859,1056,0
			z"/>
		
			<radialGradient id="SVGID_5_" cx="814.0659" cy="70.4628" r="69" gradientTransform="matrix(0.9981 0 0 0.968 0.0484 -1.0003)" gradientUnits="userSpaceOnUse">
			<stop  offset="0" style="stop-color:#FFFFFF"/>
			<stop  offset="1" style="stop-color:#2D3186;stop-opacity:0"/>
		</radialGradient>
		<ellipse opacity="0.65" fill="url(#SVGID_5_)" cx="812.54" cy="67.209" rx="68.867" ry="66.794"/>
		
			<radialGradient id="SVGID_6_" cx="984.1667" cy="227.1175" r="58" gradientTransform="matrix(0.9981 0 0 0.968 0.0484 -1.0003)" gradientUnits="userSpaceOnUse">
			<stop  offset="0" style="stop-color:#FFFFFF"/>
			<stop  offset="1" style="stop-color:#2D3186;stop-opacity:0"/>
		</radialGradient>
		<ellipse opacity="0.65" fill="url(#SVGID_6_)" cx="982.311" cy="218.855" rx="57.888" ry="56.145"/>
	</g>
</g>
<g id="G_x26_M">
	<g>
		<text transform="matrix(1 0 0 1 61.5068 685.6318)" fill="#FFFFFF" font-family="'PoorRichard-Regular'" font-size="165.0323px">Asesorías Ltda.</text>
		<g>
			<path fill="#FFFFFF" d="M345.309,383.261c5.199,0,8.8,0.485,10.806,1.451c2.007,0.97,3.011,3.091,3.011,6.365
				c0,3.276-1.825,6.738-5.472,10.384c-3.65,3.65-5.471,8.748-5.471,15.297v18.312c0,4.913,1.451,8.786,4.354,11.613
				c2.904,2.829,4.355,5.359,4.355,7.592c0,6.107-6.515,13.846-19.54,23.225c-13.029,9.379-29.443,17.384-49.241,24.006
				c-19.802,6.623-38.857,9.938-57.169,9.938c-46.449,0-86.388-15.37-119.809-46.114C77.71,434.589,61,393.684,61,342.618
				c0-29.774,6.811-57.465,20.434-83.074c13.622-25.604,32.566-45.591,56.834-59.96c24.265-14.366,51.509-21.55,81.733-21.55
				c29.328,0,56.499,5.325,81.51,15.967c25.011,10.646,37.517,22.52,37.517,35.619v17.865c0,1.786,0.37,4.505,1.117,8.151
				c0.743,3.65,1.117,7.034,1.117,10.161c0,2.98-0.708,5.548-2.121,7.704c-1.417,2.16-3.315,3.238-5.694,3.238
				c-2.533,0-4.913-1.005-7.146-3.015c-2.233-2.01-5.513-7.554-9.833-16.637c-8.2-16.972-16.769-29.255-25.709-36.847
				c-15.649-13.249-37.409-19.875-65.275-19.875c-35.322,0-63.603,12.868-84.839,38.606
				c-21.236,25.737-31.854,59.503-31.854,101.305c0,47.604,11.487,84.312,34.468,110.122c22.977,25.811,52.595,38.714,88.855,38.714
				c18.801,0,36.258-3.736,52.371-11.218c16.114-7.478,24.174-18.399,24.174-32.765v-29.987c0-7.258-6.849-10.89-20.545-10.89
				c-2.383,0-6.068,0.15-11.054,0.447c-4.99,0.3-8.524,0.447-10.608,0.447c-5.659,0-10.049-1.127-13.176-3.384
				c-3.126-2.254-4.689-5.189-4.689-8.8c0-6.466,4.309-9.7,12.928-9.7H345.309z"/>
			<path fill="#FFFFFF" d="M469.045,353.935c0.743,1.193,2.603,3.165,5.583,5.918c2.976,2.757,4.466,5.621,4.466,8.598
				c0,3.277-2.456,4.913-7.37,4.913c-1.34,0-4.02-0.185-8.039-0.558c-4.02-0.37-7.296-0.559-9.826-0.559
				c-14.442,0-30.93,7.659-49.464,22.977c-18.535,15.318-27.803,39.035-27.803,71.155c0,25.726,8.953,48.665,26.86,68.813
				c17.907,20.151,38.874,30.225,62.902,30.225c24.024,0,46.704-8.124,68.045-24.373c21.34-16.25,32.011-35.951,32.011-59.106
				c0-17.363-5.004-31.124-15.007-41.293c-10.004-10.164-20.605-15.248-31.798-15.248c-8.811,0-16.278,2.854-22.398,8.559
				c-6.12,5.705-9.18,13.225-9.18,22.558c0,6.225,3.06,11.634,9.184,16.226c3.283,2.422,4.927,4.463,4.927,6.123
				c0,2.118-1.113,4.048-3.333,5.785c-2.219,1.738-4.438,2.607-6.657,2.607c-5.332,0-10.217-3.018-14.655-9.058
				c-4.442-6.04-6.661-13.612-6.661-22.712c0-10.886,2.603-21.288,7.816-31.208c5.21-9.916,14.589-20.06,28.138-30.427
				c13.545-10.363,28.881-17.858,46.003-22.481c17.119-4.624,39.6-6.937,67.442-6.937c25.308,0,45.815-2.715,61.523-8.151
				c15.705-5.433,23.56-14.031,23.56-25.793c0-1.34-0.747-3.384-2.233-6.141c-1.49-2.753-2.233-4.948-2.233-6.588
				c0-5.21,3.179-7.816,9.539-7.816c3.674,0,6.689,2.122,9.041,6.365c2.352,4.243,3.527,8.821,3.527,13.734
				c0,9.233-3.761,18.574-11.277,28.026c-7.519,9.456-17.942,17.792-31.264,25.011c-13.325,7.223-28.214,12.024-44.663,14.404
				c-16.452,2.383-39.192,3.573-68.223,3.573c-16.526,0-26.909,0.858-31.152,2.568c-4.243,1.713-6.365,3.091-6.365,4.131
				c0,1.044,1.34,1.563,4.02,1.563c13.249,0,25.717,7,37.406,20.992c11.685,13.996,17.53,31.488,17.53,52.479
				c0,18.312-5.956,35.026-17.866,50.135c-11.913,15.112-27.991,27.097-48.236,35.953c-20.248,8.856-40.123,13.287-59.625,13.287
				c-38.71,0-70.645-11.623-95.803-34.872c-25.162-23.246-37.74-52.081-37.74-86.507c0-26.822,10.754-50.776,32.269-71.866
				c21.512-21.086,46.412-32.821,74.699-35.207c2.68-0.297,4.02-0.89,4.02-1.783c0-0.889-1.044-2.746-3.126-5.569l-59.849-84.008
				c-1.34-1.78-2.01-3.266-2.01-4.456c0-2.969,2.865-4.787,8.598-5.457c5.73-0.67,15.744-1.005,30.036-1.005h103.395
				c5.807,0,10.122,0.447,12.952,1.34c2.826,0.893,5.025,3.238,6.588,7.034c1.563,3.797,2.345,9.865,2.345,18.201
				c0,13.845-1.033,22.258-3.099,25.235c-2.066,2.98-5.088,4.466-9.065,4.466c-4.128,0-7.666-3.2-10.615-9.603
				c-2.694-5.806-5.688-8.709-8.981-8.709h-62.187c-8.831,0-13.245,2.68-13.245,8.039c0,2.68,1.04,5.51,3.126,8.486L469.045,353.935
				z"/>
			<path fill="#FFFFFF" d="M945.92,458.12c0,6.096,1.413,11.483,4.243,16.166c2.826,4.682,8.52,7.875,17.083,9.585
				c8.56,1.71,13.658,3.457,15.297,5.244c1.636,1.788,2.456,3.947,2.456,6.477c0,2.68-1.151,4.951-3.454,6.811
				c-2.303,1.859-5.611,2.791-9.92,2.791c-3.269,0-9.585-0.708-18.943-2.121c-9.362-1.414-17.164-2.122-23.404-2.122
				c-4.162,0-11.591,0.708-22.289,2.122c-10.698,1.413-18.35,2.121-22.957,2.121c-9.512,0-14.263-3.497-14.263-10.495
				c0-3.424,1.039-5.695,3.126-6.811c2.083-1.117,5.359-1.899,9.825-2.345c10.866-1.19,17.677-3.234,20.433-6.134
				c2.754-2.9,4.132-9.703,4.132-20.416V267.576c0-8.179-0.383-12.272-1.145-12.272c-1.071,0-3.594,3.943-7.564,11.822
				l-34.569,67.588c-14.424,28.256-27.545,53.352-39.366,75.285c-11.822,21.934-18.141,33.721-18.961,35.354
				c-0.82,1.636-1.752,2.976-2.795,4.016c-1.042,1.04-2.683,1.56-4.916,1.56c-3.727,0-7.08-2.9-10.06-8.699l-83.394-165.055
				c-3.874-7.732-6.253-11.598-7.147-11.598c-0.746,0-1.117,3.863-1.117,11.588v188.988c0,5.499,2.38,10.066,7.147,13.706
				c4.762,3.643,9.379,5.461,13.845,5.461c12.506,0,18.759,3.538,18.759,10.611c0,6.474-5.437,9.711-16.302,9.711
				c-1.786,0-6.81-0.781-15.074-2.344c-8.262-1.564-14.107-2.345-17.53-2.345c-4.466,0-10.608,0.858-18.423,2.569
				c-7.817,1.709-13.365,2.567-16.637,2.567c-4.767,0-8.636-1.242-11.613-3.723c-2.979-2.48-4.466-5.076-4.466-7.784
				c0-2.708,1.748-5.077,5.248-7.108c3.496-2.032,7.554-3.047,12.171-3.047c14.589,0,21.885-8.546,21.885-25.639V225.564
				c0-6.092-1.937-11.334-5.807-15.719c-3.872-4.383-9.379-7.059-16.525-8.026c-7.147-0.966-11.836-2.491-14.069-4.578
				c-2.233-2.083-3.35-4.689-3.35-7.816c0-2.233,1.452-4.243,4.358-6.029c2.903-1.786,5.848-2.68,8.828-2.68
				c3.126,0,7,0.635,11.62,1.898c4.616,1.266,8.34,1.898,11.173,1.898c2.83,0,6.406-0.632,10.726-1.898
				c4.319-1.263,7.822-1.898,10.503-1.898c3.573,0,6.441,1.417,8.604,4.243c2.16,2.83,5.177,8.486,9.051,16.972l50.727,102.278
				l42.459,85.083c1.786,3.573,3.13,5.359,4.023,5.359c1.039,0,2.38-1.636,4.016-4.913c45.972-86.346,78.181-147.685,96.633-184.012
				c5.503-10.719,10.227-17.492,14.171-20.322c3.942-2.826,8.144-4.243,12.61-4.243c2.079,0,5.576,0.3,10.486,0.893
				c4.909,0.596,8.629,0.893,11.159,0.893c2.38,0,5.394-0.37,9.041-1.117c3.643-0.743,5.911-1.117,6.804-1.117
				c8.032,0,12.052,3.241,12.052,9.725c0,5.279-3.872,7.917-11.612,7.917c-6.403,0-11.986,2.268-16.749,6.801
				c-4.767,4.536-7.67,7.805-8.709,9.812c-1.044,2.006-1.563,6.8-1.563,14.379V458.12z"/>
			<g>
				<path fill="#FFFFFF" d="M61.238,540.588c22.402-1.448,44.804-2.206,67.205-2.721c11.201-0.322,22.402-0.394,33.603-0.584
					l33.603-0.193l33.603,0.184c11.201,0.195,22.402,0.257,33.603,0.583c22.402,0.513,44.803,1.274,67.205,2.731
					c-22.402,1.457-44.803,2.218-67.205,2.731c-11.201,0.326-22.402,0.388-33.603,0.583l-33.603,0.184l-33.603-0.193
					c-11.201-0.19-22.402-0.261-33.603-0.584C106.042,542.794,83.64,542.036,61.238,540.588z"/>
			</g>
			<g>
				<path fill="#FFFFFF" d="M635.132,540.03c29.141-1.448,58.282-2.206,87.423-2.721c14.57-0.322,29.141-0.394,43.711-0.584
					l43.711-0.193l43.711,0.184c14.57,0.195,29.141,0.257,43.711,0.583c29.141,0.513,58.282,1.274,87.423,2.731
					c-29.141,1.457-58.282,2.219-87.423,2.731c-14.57,0.326-29.141,0.388-43.711,0.583l-43.711,0.184l-43.711-0.193
					c-14.57-0.19-29.141-0.261-43.711-0.584C693.414,542.236,664.273,541.478,635.132,540.03z"/>
			</g>
		</g>
	</g>
</g>
</svg>
